<?xml version="1.0" encoding="UTF-8"?>
<svg width="50px" height="50px" viewBox="0 0 50 50" version="1.1" xmlns="http://www.w3.org/2000/svg" xmlns:xlink="http://www.w3.org/1999/xlink">
    <!-- Generator: Sketch 52.2 (67145) - http://www.bohemiancoding.com/sketch -->
    <title>logo</title>
    <desc>Created with Sketch.</desc>
    <g id="logo" stroke="none" stroke-width="1" fill="none" fill-rule="evenodd">
        <g id="credit-card-regular" transform="translate(0.000000, 5.500000)" fill="#555555" fill-rule="nonzero">
            <path d="M45.8246528,0 L4.17534722,0 C1.86631944,0 0,1.86631944 0,4.16666667 L0,34.7222222 C0,37.0225694 1.86631944,38.8888889 4.17534722,38.8888889 L45.8246528,38.8888889 C48.1336806,38.8888889 50,37.0225694 50,34.7222222 L50,4.16666667 C50,1.86631944 48.1336806,0 45.8246528,0 Z M3.55022926,4 L46.4497707,4 C46.7523968,4 47,4.28125 47,4.625 L47,9 L3,9 L3,4.625 C3,4.28125 3.24760317,4 3.55022926,4 Z M46.4497707,35.1400584 L3.55022926,35.1400584 C3.24760317,35.1400584 3,34.8771143 3,34.5557382 L3,18 L47,18 L47,34.5557382 C47,34.8771143 46.7523968,35.1400584 46.4497707,35.1400584 Z M17.3333333,25.0416667 L17.3333333,28.5138889 C17.3333333,29.0868056 16.6395833,29.5555556 15.7916667,29.5555556 L6.54166667,29.5555556 C5.69375,29.5555556 5,29.0868056 5,28.5138889 L5,25.0416667 C5,24.46875 5.69375,24 6.54166667,24 L15.7916667,24 C16.6395833,24 17.3333333,24.46875 17.3333333,25.0416667 Z M36.8888889,25.0416667 L36.8888889,28.5138889 C36.8888889,29.0868056 36.3188889,29.5555556 35.6222222,29.5555556 L21.2666667,29.5555556 C20.57,29.5555556 20,29.0868056 20,28.5138889 L20,25.0416667 C20,24.46875 20.57,24 21.2666667,24 L35.6222222,24 C36.3188889,24 36.8888889,24.46875 36.8888889,25.0416667 Z" id="Shape"></path>
        </g>
    </g>
</svg>